# AST/ASF file generated using VICON BodyLanguage
# -----------------------------------------------
:version 1.10
:name VICON
:units
  mass 1.0
  length 0.45
  angle deg
:documentation
   .ast/.asf automatically generated from VICON data using
   VICON BodyBuilder and BodyLanguage model FoxedUp or BRILLIANT.MOD
:root
   order TX TY TZ RX RY RZ
   axis XYZ
   position 0 0 0  
   orientation 0 0 0 
:bonedata
  begin
     id 1 
     name lhipjoint
     direction 0.610259 -0.730986 0.305356 
     length 2.50941 
     axis 0 0 0  XYZ
  end
  begin
     id 2 
     name lfemur
     direction 0.34202 -0.939693 0  
     length 7.48822  
     axis 0 0 20  XYZ
    dof rx ry rz
    limits (-160.0 20.0)
           (-70.0 70.0)
           (-60.0 70.0)
  end
  begin
     id 3 
     name ltibia
     direction 0.34202 -0.939693 0   
     length 7.60141   
     axis 0 0 20   XYZ
    dof rx
    limits (-10.0 170.0)
  end
  begin
     id 4 
     name lfoot
     direction 0.0673488 -0.185039 0.980421   
     length 2.04049   
     axis -90 7.62852e-016 20   XYZ
    dof rx rz
    limits (-45.0 90.0)
           (-70.0 20.0)
  end
  begin
     id 5 
     name ltoes
     direction 1.5356e-011 -4.21729e-011 1   
     length 1.02897   
     axis -90 7.62852e-016 20   XYZ
    dof rx
    limits (-90.0 20.0)
  end
  begin
     id 6 
     name rhipjoint
     direction -0.57612 -0.754205 0.315056   
     length 2.43216  
     axis 0 0 0  XYZ 
  end
  begin
     id 7 
     name rfemur
     direction -0.34202 -0.939693 0   
     length 7.42799   
     axis 0 0 -20   XYZ
    dof rx ry rz
    limits (-160.0 20.0)
           (-70.0 70.0)
           (-70.0 60.0)
  end
  begin
     id 8 
     name rtibia
     direction -0.34202 -0.939693 0   
     length 7.69484   
     axis 0 0 -20   XYZ
    dof rx
    limits (-10.0 170.0)
 end
 begin
     id 9 
     name rfoot
     direction -0.111837 -0.30727 0.945028   
     length 2.15769  
     axis -90 -7.62852e-016 -20   XYZ
    dof rx rz
    limits (-45.0 90.0)
           (-20.0 70.0)
  end
  begin
     id 10 
     name rtoes
     direction -1.53539e-011 -4.21878e-011 1   
     length 1.07391   
     axis -90 -7.62852e-016 -20   XYZ
    dof rx
    limits (-90.0 20.0)
  end
  begin
     id 11 
     name lowerback
     direction 0.00552624 0.990109 -0.140195   
     length 2.12403   
     axis 0 0 0   XYZ
    dof rx ry rz
    limits (-20.0 45.0)
           (-30.0 30.0)
           (-30.0 30.0)
  end
  begin
     id 12 
     name upperback
     direction 0.00361898 0.999976 -0.00584723   
     length 2.13232   
     axis 0 0 0   XYZ
    dof rx ry rz
    limits (-20.0 45.0)
           (-30.0 30.0)
           (-30.0 30.0)
  end
  begin
     id 13 
     name thorax
     direction -0.000331275 0.998253 0.0590847   
     length 2.17688   
     axis 0 0 0   XYZ
    dof rx ry rz
    limits (-20.0 45.0)
           (-30.0 30.0)
           (-30.0 30.0)
  end
  begin
     id 14 
     name lowerneck
     direction -0.0561561 0.979832 0.19177   
     length 1.64159   
     axis 0 0 0   XYZ
    dof rx ry rz
    limits (-20.0 45.0)
           (-30.0 30.0)
           (-30.0 30.0)
  end
  begin
     id 15 
     name upperneck
     direction 0.0827153 0.979385 -0.184293   
     length 1.68939   
     axis 0 0 0   XYZ
    dof rx ry rz
    limits (-20.0 45.0)
           (-30.0 30.0)
           (-30.0 30.0)
  end
  begin
     id 16
     name head
     direction 0.0278583 0.995936 -0.0856488  
     length 1.70207  
     axis 0 0 0   XYZ
    dof rx ry rz
    limits (-20.0 45.0)
           (-30.0 30.0)
           (-30.0 30.0)
  end
  begin
     id 17 
     name lclavicle
     direction 0.950993 0.301131 -0.0702275  
     length 3.41652  
     axis 0 0 0   XYZ
    dof ry rz
    limits (-20.0 10.0)
           (0.0 20.0)
  end
  begin
     id 18 
     name lhumerus
     direction 1 -4.48981e-011 -3.9662e-029   
     length 5.32955   
     axis 180 -30 -90   XYZ
    dof rx ry rz
    limits (-60.0 90.0)
           (-90.0 90.0)
           (-90.0 90.0)
  end
  begin
     id 19
     name lradius
     direction 1 -4.48925e-011 -9.0549e-027   
     length 3.69232   
     axis 180 -30 -90   XYZ
    dof rx
    limits (-10.0 170.0)
  end
  begin
     id 20
     name lwrist
     direction 1 -4.49007e-011 -1.49005e-026   
     length 1.84616   
     axis 9.0955e-015 90 90   XYZ
    dof ry
    limits (-180.0 0.0)
 end
  begin
     id 21 
     name lhand
     direction 1 -4.49016e-011 -2.98023e-026   
     length 0.536598   
     axis 1.90115e-014 90 90   XYZ
    dof rx rz
    limits (-90.0 90.0)
           (-45.0 45.0)
  end
  begin
     id 22 
     name lfingers
     direction 1 -4.48924e-011 -5.9578e-026   
     length 0.432619   
     axis 3.80223e-014 90 90   XYZ
    dof rx
    limits (0.0 90.0)
  end
  begin
     id 23
     name lthumb
     direction 0.707107 -6.34947e-011 0.707107   
     length 0.621157   
     axis -90 45 -3.84942e-014   XYZ
    dof rx rz
    limits (-45.0 45.0)
           (-45.0 45.0)
  end
  begin
     id 24 
     name rclavicle
     direction -0.955495 0.276497 -0.102848   
     length 3.36357  
     axis 0 0 0   XYZ 
    dof ry rz
    limits (-10.0 20.0)
           (-20.0 0.0)
  end
  begin
     id 25 
     name rhumerus
     direction -1 -4.48961e-011 3.30983e-027  
     length 5.23431   
     axis 180 30 90   XYZ
    dof rx ry rz
    limits (-90.0 60.0)
           (-90.0 90.0)
           (-90.0 90.0)
  end
  begin
     id 26 
     name rradius
     direction -1 -4.48965e-011 -6.63263e-027   
     length 3.55301   
     axis 180 30 90   XYZ
    dof rx
    limits (-10.0 170.0)
  end
  begin
     id 27 
     name rwrist
     direction -1 -4.48942e-011 -1.48958e-026   
     length 1.77651   
     axis 9.0955e-015 -90 -90   XYZ
    dof ry
    limits (-180.0 0.0)
  end
  begin
     id 28
     name rhand
     direction -1 -4.48977e-011 -2.97966e-026   
     length 0.772522   
     axis 1.90115e-014 -90 -90   XYZ
    dof rx rz
    limits (-90.0 90.0)
           (-45.0 45.0)
  end
  begin
     id 29
     name rfingers
     direction -1 -4.49135e-011 -5.96389e-026   
     length 0.622827   
     axis 3.80223e-014 -90 -90   XYZ
    dof rx
    limits (0.0 90.0)
  end
  begin
     id 30
     name rthumb
     direction -0.707107 -6.34969e-011 0.707107   
     length 0.894259   
     axis -90 -45 3.84942e-014   XYZ
    dof rx rz
    limits (-45.0 45.0)
           (-45.0 45.0)
  end
:hierarchy
  begin
    root lhipjoint rhipjoint lowerback
    lhipjoint lfemur
    lfemur ltibia
    ltibia lfoot
    lfoot ltoes
    rhipjoint rfemur
    rfemur rtibia
    rtibia rfoot
    rfoot rtoes
    lowerback upperback
    upperback thorax
    thorax lowerneck lclavicle rclavicle
    lowerneck upperneck
    upperneck head
    lclavicle lhumerus
    lhumerus lradius
    lradius lwrist
    lwrist lhand lthumb
    lhand lfingers
    rclavicle rhumerus
    rhumerus rradius
    rradius rwrist
    rwrist rhand rthumb
    rhand rfingers
  end

#!OML:ASF F:\VICON\USERDATA\INSTALL\rory3\rory3.ASF
:FULLY-SPECIFIED
:DEGREES
20
root 9.72168 17.806 -24.9965 -180.874 -5.31033 177.241
lowerback 9.55365 0.651087 -4.66531
upperback 1.22437 0.261967 -0.130506
thorax -4.10821 0.153674 2.46026
lowerneck -22.5991 -3.25674 -11.3039
upperneck 29.8508 -4.05019 7.31164
head 14.4415 -2.43597 4.06096
rclavicle -1.57537e-014 2.5345e-015
rhumerus -30.8506 -11.9303 -83.0364
rradius 27.6361
rwrist 10.5555
rhand -13.5298 8.39653
rfingers 7.12502
rthumb 12.5825 -21.2046
lclavicle -1.57537e-014 2.5345e-015
lhumerus -26.6971 -0.625914 87.2795
lradius 27.5143
lwrist -8.18862
lhand -15.6012 28.1085
lfingers 7.12502
lthumb 10.5849 57.8219
rfemur -12.5699 -1.04723 17.6413
rtibia 35.3511
rfoot -16.5304 -9.7834
rtoes 2.72904
lfemur -6.41803 0.941105 -24.5177
ltibia 19.7886
lfoot -8.67388 -12.5218
ltoes 0.934796
21
root 9.73689 17.8001 -24.9743 -180.954 -5.42758 177.42
lowerback 9.57523 0.690979 -4.36942
upperback 1.27124 0.343429 -0.143846
thorax -4.07556 0.187023 2.26921
lowerneck -22.5708 -3.31708 -11.353
upperneck 29.9231 -4.15485 7.35394
head 14.483 -2.48638 4.06887
rclavicle 1.29831e-015 -8.54774e-015
rhumerus -30.9396 -12.1113 -83.0139
rradius 27.7886
rwrist 10.4657
rhand -13.5397 8.69729
rfingers 7.12502
rthumb 12.5729 -20.9044
lclavicle 1.29831e-015 -8.54774e-015
lhumerus -26.6741 -0.771347 87.1118
lradius 27.59
lwrist -8.06113
lhand -15.5793 28.2087
lfingers 7.12502
lthumb 10.606 57.9211
rfemur -12.4777 -1.139 17.8477
rtibia 35.2131
rfoot -16.4558 -9.76982
rtoes 1.19732
lfemur -6.5351 0.875395 -24.2895
ltibia 19.9213
lfoot -8.68457 -12.4439
ltoes 0.288894
22
root 9.74784 17.8011 -24.9528 -181.043 -5.50965 177.441
lowerback 9.71097 0.730494 -4.2456
upperback 1.27058 0.400446 -0.150045
thorax -4.15505 0.214355 2.18515
lowerneck -22.5641 -3.41447 -11.7192
upperneck 30.1044 -4.29311 7.63388
head 14.5977 -2.56407 4.22833
rclavicle -5.37961e-015 2.98177e-016
rhumerus -31.1188 -12.1478 -82.9309
rradius 27.8269
rwrist 10.5636
rhand -13.925 8.99677
rfingers 7.12502
rthumb 12.2015 -20.6274
lclavicle -5.37961e-015 2.98177e-016
lhumerus -26.8228 -0.569294 86.9486
lradius 27.7299
lwrist -8.16345
lhand -15.6124 28.038
lfingers 7.12502
lthumb 10.574 57.752
rfemur -12.3353 -1.28341 17.8347
rtibia 35.025
rfoot -16.4032 -9.34504
rtoes 1.36977
lfemur -6.64992 0.656498 -24.2646
ltibia 20.1446
lfoot -8.57388 -12.3439
ltoes 1.46545
23
root 9.76579 17.8016 -24.9252 -181.084 -5.52384 177.179
lowerback 9.79481 0.823278 -4.44005
upperback 1.32736 0.487727 -0.254503
thorax -4.14962 0.255454 2.17408
lowerneck -22.4606 -3.46357 -11.9783
upperneck 30.1059 -4.36226 7.85189
head 14.5981 -2.5985 4.3519
rclavicle 1.47225e-014 1.19271e-015
rhumerus -31.1201 -12.1197 -82.9538
rradius 27.8663
rwrist 10.5563
rhand -14.2696 9.20172
rfingers 7.12502
rthumb 11.8691 -20.4419
lclavicle 1.47225e-014 1.19271e-015
lhumerus -26.7163 -0.319159 86.7257
lradius 27.6801
lwrist -8.13484
lhand -15.6312 27.866
lfingers 7.12502
lthumb 10.5559 57.5809
rfemur -12.1666 -1.10731 17.55
rtibia 34.7319
rfoot -16.2883 -8.87716
rtoes 2.64454
lfemur -6.90848 0.338589 -24.5398
ltibia 20.5666
lfoot -8.66698 -11.9789
ltoes 1.70525
24
root 9.78777 17.8006 -24.8912 -181.05 -5.49334 177.379
lowerback 10.1984 0.915609 -4.16177
upperback 1.03169 0.626775 -0.248436
thorax -4.69051 0.340641 2.00035
lowerneck -22.083 -3.41855 -12.2481
upperneck 30.2415 -4.39831 8.12499
head 14.5945 -2.63759 4.50864
rclavicle 9.3553e-015 3.52843e-015
rhumerus -31.6927 -11.9876 -82.8687
rradius 28.1799
rwrist 10.246
rhand -14.0346 9.08295
rfingers 7.12502
rthumb 12.0957 -20.5474
lclavicle 9.3553e-015 3.52843e-015
lhumerus -27.129 -0.488167 86.5912
lradius 27.7417
lwrist -7.74659
lhand -15.6639 27.7353
lfingers 7.12502
lthumb 10.5243 57.4519
rfemur -12.0652 -0.759517 17.8265
rtibia 34.2788
rfoot -16.1002 -8.68895
rtoes 3.45238
lfemur -7.40232 0.00520636 -24.3025
ltibia 21.1536
lfoot -8.86971 -11.3427
ltoes 0.20146
25
root 9.80907 17.8109 -24.858 -181.095 -5.51213 177.813
lowerback 10.1314 0.927514 -3.77874
upperback 1.17341 0.69742 -0.08156
thorax -4.50643 0.363341 1.95031
lowerneck -22.535 -3.09921 -11.6589
upperneck 30.4343 -3.83278 7.43656
head 14.6713 -2.40988 4.23232
rclavicle 2.13197e-014 -1.29707e-014
rhumerus -31.4561 -11.7552 -82.9142
rradius 28.2567
rwrist 9.89245
rhand -13.9171 8.81041
rfingers 7.12502
rthumb 12.209 -20.8133
lclavicle 2.13197e-014 -1.29707e-014
lhumerus -27.0533 -0.278301 86.4936
lradius 27.9673
lwrist -7.5536
lhand -16.0253 27.6859
lfingers 7.12502
lthumb 10.1757 57.4199
rfemur -11.9909 -0.658882 18.3849
rtibia 33.9933
rfoot -15.9239 -8.64783
rtoes 2.80928
lfemur -7.74484 -0.533564 -23.8397
ltibia 21.5219
lfoot -8.95982 -10.5027
ltoes -0.67553
26
root 9.82282 17.8456 -24.8288 -181.205 -5.5508 177.791
lowerback 10.532 0.945093 -3.67124
upperback 1.03798 0.710942 -0.151445
thorax -4.87031 0.376198 1.81075
lowerneck -22.3704 -3.13378 -11.9597
upperneck 30.6177 -3.99024 7.84154
head 14.7546 -2.48163 4.42995
rclavicle -1.71452e-015 -4.42296e-015
rhumerus -31.7882 -11.6055 -82.9771
rradius 28.3784
rwrist 9.77946
rhand -14.0078 8.75322
rfingers 7.12502
rthumb 12.1216 -20.8756
lclavicle -1.71452e-015 -4.42296e-015
lhumerus -27.4594 -0.134829 86.2599
lradius 28.1548
lwrist -7.6648
lhand -16.2693 27.8569
lfingers 7.12502
lthumb 9.94034 57.6022
rfemur -11.7966 -0.929378 18.3783
rtibia 33.7312
rfoot -15.806 -8.38942
rtoes 2.05327
lfemur -7.97636 -0.89819 -23.9678
ltibia 21.8869
lfoot -9.11213 -9.82347
ltoes -2.06722
27
root 9.8332 17.8118 -24.7934 -181.247 -5.58486 177.667
lowerback 10.4793 0.967176 -3.59624
upperback 1.23054 0.737547 -0.251531
thorax -4.63855 0.375241 1.66208
lowerneck -22.4757 -3.1726 -11.754
upperneck 30.5198 -3.93121 7.42891
head 14.7122 -2.47248 4.22847
rclavicle -6.85497e-015 2.5345e-015
rhumerus -31.6038 -11.5549 -83.0941
rradius 28.6584
rwrist 9.79142
rhand -14.0086 8.77115
rfingers 7.12502
rthumb 12.1208 -20.8578
lclavicle -6.85497e-015 2.5345e-015
lhumerus -27.1628 -0.0950055 86.099
lradius 28.1256
lwrist -7.47312
lhand -16.5204 27.9615
lfingers 7.12502
lthumb 9.69808 57.7183
rfemur -11.869 -1.11033 18.2204
rtibia 33.6691
rfoot -15.9031 -7.94061
rtoes 1.71254
lfemur -8.10047 -2.06445 -24.11
ltibia 22.141
lfoot -8.71761 -8.91293
ltoes -0.386484
28
root 9.84644 17.8034 -24.7532 -181.217 -5.60137 177.825
lowerback 10.9033 1.02124 -3.29827
upperback 0.997617 0.834254 -0.219601
thorax -5.12048 0.431898 1.50715
lowerneck -22.196 -3.20959 -12.0481
upperneck 30.5706 -3.96542 7.50341
head 14.6878 -2.52777 4.30362
rclavicle 2.21086e-014 2.88238e-015
rhumerus -32.0271 -11.4956 -82.9203
rradius 28.9854
rwrist 9.74511
rhand -13.7031 8.56553
rfingers 7.12502
rthumb 12.4154 -21.0458
lclavicle 2.21086e-014 2.88238e-015
lhumerus -27.5757 -0.291021 86.1294
lradius 28.2747
lwrist -6.93557
lhand -16.9979 28.0528
lfingers 7.12502
lthumb 9.23741 57.8305
rfemur -12.0572 -1.04465 18.3895
rtibia 33.6394
rfoot -16.5275 -7.24044
rtoes 1.67895
lfemur -8.38458 -2.82832 -23.965
ltibia 22.3401
lfoot -8.63172 -8.20307
ltoes -0.161121
29
root 9.85645 17.8035 -24.7181 -181.316 -5.55391 178.211
lowerback 10.9161 1.0686 -2.76215
upperback 1.14778 0.963665 -0.114617
thorax -4.96895 0.479342 1.29644
lowerneck -22.2328 -3.25893 -12.1294
upperneck 30.4905 -3.93644 7.39313
head 14.657 -2.5294 4.27511
rclavicle -9.52924e-015 1.01877e-014
rhumerus -31.7797 -11.3612 -82.8568
rradius 29.0475
rwrist 9.55473
rhand -13.6209 8.41906
rfingers 7.12502
rthumb 12.4947 -21.1874
lclavicle -9.52924e-015 1.01877e-014
lhumerus -27.4221 -0.275653 86.0989
lradius 28.3372
lwrist -6.66267
lhand -16.8632 27.9315
lfingers 7.12502
lthumb 9.36733 57.7034
rfemur -12.1555 -1.14505 18.8096
rtibia 33.715
rfoot -16.6155 -6.99428
rtoes 1.66733
lfemur -8.50484 -3.45423 -23.6052
ltibia 22.4709
lfoot -8.64916 -7.40876
ltoes -2.41642
30
root 9.85893 17.8026 -24.6857 -181.423 -5.38495 178.628
lowerback 11.2958 1.12941 -2.10877
upperback 0.970943 1.12339 -0.047762
thorax -5.36137 0.553529 0.96649
lowerneck -22.0437 -3.24742 -12.1086
upperneck 30.6649 -3.91987 7.15741
head 14.6858 -2.57408 4.17723
rclavicle -9.00122e-015 7.00716e-015
rhumerus -32.164 -11.0055 -82.8093
rradius 29.318
rwrist 9.16121
rhand -13.9799 8.50068
rfingers 7.12502
rthumb 12.1485 -21.1266
lclavicle -9.00122e-015 7.00716e-015
lhumerus -27.8024 -0.181954 85.9865
lradius 28.3331
lwrist -6.51921
lhand -16.8372 27.626
lfingers 7.12502
lthumb 9.39247 57.3967
rfemur -12.1277 -1.49613 19.2226
rtibia 33.4923
rfoot -16.3769 -6.74021
rtoes 0.504525
lfemur -8.77872 -4.11575 -23.2204
ltibia 23.0463
lfoot -8.7159 -6.47806
ltoes -2.58913
31
root 9.85928 17.8034 -24.6473 -181.408 -5.23473 178.858
lowerback 10.8367 1.15089 -1.68942
upperback 1.39859 1.20016 0.00433512
thorax -4.65181 0.566782 0.784804
lowerneck -22.7886 -3.01686 -11.456
upperneck 30.7042 -3.45875 6.57573
head 14.7813 -2.34737 3.91389
rclavicle -2.62147e-015 3.97569e-015
rhumerus -31.4662 -10.7271 -82.9308
rradius 29.5823
rwrist 9.00179
rhand -14.0403 8.59742
rfingers 7.12502
rthumb 12.0902 -21.0333
lclavicle -2.62147e-015 3.97569e-015
lhumerus -27.1237 0.331285 85.8328
lradius 28.2088
lwrist -6.66083
lhand -17.0078 27.3692
lfingers 7.12502
lthumb 9.22786 57.1472
rfemur -12.1423 -1.7857 19.3915
rtibia 33.0658
rfoot -16.0685 -6.34433
rtoes 0.938126
lfemur -9.34866 -4.78412 -23.0392
ltibia 23.9177
lfoot -8.75577 -5.53875
ltoes -1.85806
